<svg width="16" height="18" viewBox="0 0 16 18" fill="none" xmlns="http://www.w3.org/2000/svg">
<path d="M9 1.00867C9 0.74345 8.89464 0.489097 8.70711 0.30156C8.51957 0.114024 8.26522 0.00866699 8 0.00866699C7.73478 0.00866699 7.48043 0.114024 7.29289 0.30156C7.10536 0.489097 7 0.74345 7 1.00867L6.997 9.01167C6.997 9.27688 7.10236 9.53124 7.28989 9.71877C7.47743 9.90631 7.73178 10.0117 7.997 10.0117C8.26222 10.0117 8.51657 9.90631 8.70411 9.71877C8.89164 9.53124 8.997 9.27688 8.997 9.01167L9 1.00867Z" fill="#F06449"/>
<path d="M0 9.99167C0 7.78167 0.895 5.78167 2.343 4.33467L3.757 5.74867C2.91785 6.58777 2.34636 7.65686 2.11482 8.82076C1.88327 9.98466 2.00207 11.1911 2.45618 12.2875C2.9103 13.3838 3.67933 14.3209 4.66604 14.9802C5.65274 15.6395 6.8128 15.9914 7.9995 15.9914C9.1862 15.9914 10.3463 15.6395 11.333 14.9802C12.3197 14.3209 13.0887 13.3838 13.5428 12.2875C13.9969 11.1911 14.1157 9.98466 13.8842 8.82076C13.6526 7.65686 13.0812 6.58777 12.242 5.74867L13.657 4.33467C14.5872 5.26495 15.2737 6.41029 15.6556 7.66924C16.0374 8.92818 16.1029 10.2619 15.8463 11.5522C15.5896 12.8425 15.0187 14.0496 14.1841 15.0665C13.3495 16.0835 12.2769 16.8789 11.0615 17.3824C9.84607 17.8859 8.52522 18.0818 7.21597 17.9529C5.90671 17.8239 4.64946 17.3741 3.55558 16.6432C2.46169 15.9123 1.56493 14.923 0.944738 13.7628C0.324541 12.6025 4.79384e-05 11.3073 0 9.99167Z" fill="#F06449"/>
</svg>
