<svg width="24" height="23" viewBox="0 0 24 23" fill="none" xmlns="http://www.w3.org/2000/svg">
<path fill-rule="evenodd" clip-rule="evenodd" d="M16.8701 17.7208C16.5082 17.3589 15.9344 17.3338 15.5081 17.6168C14.0045 18.6151 12.2003 19.1967 10.2602 19.1967C5.01349 19.1967 0.760193 14.9434 0.760193 9.69666C0.760193 4.44995 5.01349 0.196655 10.2602 0.196655C15.5069 0.196655 19.7602 4.44995 19.7602 9.69666C19.7602 11.6367 19.1786 13.441 18.1803 14.9446C17.8973 15.3709 17.9224 15.9447 18.2843 16.3066L23.0739 21.0962C23.4644 21.4867 23.4644 22.1198 23.0739 22.5104C22.6833 22.9009 22.0502 22.9009 21.6597 22.5104L16.8701 17.7208ZM17.7602 9.69666C17.7602 13.8387 14.4023 17.1967 10.2602 17.1967C6.1181 17.1967 2.76019 13.8387 2.76019 9.69666C2.76019 5.55457 6.1181 2.19666 10.2602 2.19666C14.4023 2.19666 17.7602 5.55457 17.7602 9.69666Z" fill="white"/>
</svg>
