<svg width="81" height="81" viewBox="0 0 81 81" fill="none" xmlns="http://www.w3.org/2000/svg">
<path d="M65.9916 3.20028C65.9916 4.96775 64.5588 6.40057 62.7913 6.40057L6.40059 6.40057L6.40059 62.7911C6.40058 64.5586 4.96777 65.9914 3.20029 65.9914C1.43282 65.9914 0 64.5586 0 62.7911L1.16898e-06 4.26705C1.97827e-06 1.91042 1.91042 -2.69764e-07 4.26706 0L62.7913 1.16898e-06C64.5588 -1.16898e-06 65.9916 1.43282 65.9916 3.20028Z" fill="#404040"/>
<path d="M77.7997 15.0086C76.0322 15.0086 74.5994 16.4414 74.5994 18.2089V74.5994L18.2087 74.5994C16.4412 74.5994 15.0084 76.0322 15.0084 77.7997C15.0084 79.5672 16.4412 81 18.2087 81L76.7329 81C79.0896 81 81 79.0896 81 76.7329V18.2089C81 16.4414 79.5672 15.0086 77.7997 15.0086Z" fill="#404040"/>
<path d="M18.2089 17.1421C16.4414 17.1421 15.0086 18.5749 15.0086 20.3424C15.0086 22.1099 16.4414 23.5427 18.2089 23.5427H63.013C64.7805 23.5427 66.2133 22.1099 66.2133 20.3424C66.2133 18.5749 64.7805 17.1421 63.013 17.1421H18.2089Z" fill="#404040"/>
<path d="M15.0086 40.6109C15.0086 38.8434 16.4414 37.4106 18.2089 37.4106H63.013C64.7805 37.4106 66.2133 38.8434 66.2133 40.6109C66.2133 42.3783 64.7805 43.8111 63.013 43.8111H18.2089C16.4414 43.8111 15.0086 42.3783 15.0086 40.6109Z" fill="#404040"/>
<path d="M18.2089 57.679C16.4414 57.679 15.0086 59.1119 15.0086 60.8793C15.0086 62.6468 16.4414 64.0796 18.2089 64.0796H63.013C64.7805 64.0796 66.2133 62.6468 66.2133 60.8793C66.2133 59.1119 64.7805 57.679 63.013 57.679H18.2089Z" fill="#404040"/>
</svg>
